<svg width="512" height="512" viewBox="0 0 512 512" fill="none" xmlns="http://www.w3.org/2000/svg">
  <rect width="512" height="512" fill="#1976D2"/>
  <path d="M256 128C167.6 128 96 199.6 96 288C96 376.4 167.6 448 256 448C344.4 448 416 376.4 416 288C416 199.6 344.4 128 256 128ZM256 384C202.1 384 160 341.9 160 288C160 234.1 202.1 192 256 192C309.9 192 352 234.1 352 288C352 341.9 309.9 384 256 384Z" fill="white"/>
  <path d="M256 224C238.3 224 224 238.3 224 256V288C224 305.7 238.3 320 256 320C273.7 320 288 305.7 288 288V256C288 238.3 273.7 224 256 224Z" fill="white"/>
</svg> 